<?xml version="1.0" encoding="UTF-8" standalone="no"?>
<svg
   xmlns:dc="http://purl.org/dc/elements/1.1/"
   xmlns:cc="http://creativecommons.org/ns#"
   xmlns:rdf="http://www.w3.org/1999/02/22-rdf-syntax-ns#"
   xmlns:svg="http://www.w3.org/2000/svg"
   xmlns="http://www.w3.org/2000/svg"
   xmlns:sodipodi="http://sodipodi.sourceforge.net/DTD/sodipodi-0.dtd"
   xmlns:inkscape="http://www.inkscape.org/namespaces/inkscape"
   clip-rule="evenodd"
   fill-rule="evenodd"
   stroke-linejoin="round"
   stroke-miterlimit="1.4142"
   version="1.1"
   viewBox="0 0 24 24"
   xml:space="preserve"
   id="svg12"
   sodipodi:docname="folder-kubernetes.svg"
   inkscape:version="0.92.4 (5da689c313, 2019-01-14)"><metadata
     id="metadata18"><rdf:RDF><cc:Work
         rdf:about=""><dc:format>image/svg+xml</dc:format><dc:type
           rdf:resource="http://purl.org/dc/dcmitype/StillImage" /></cc:Work></rdf:RDF></metadata><defs
     id="defs16" /><sodipodi:namedview
     pagecolor="#ffffff"
     bordercolor="#666666"
     borderopacity="1"
     objecttolerance="10"
     gridtolerance="10"
     guidetolerance="10"
     inkscape:pageopacity="0"
     inkscape:pageshadow="2"
     inkscape:window-width="961"
     inkscape:window-height="549"
     id="namedview14"
     showgrid="false"
     inkscape:zoom="8"
     inkscape:cx="8.4414649"
     inkscape:cy="9.9993441"
     inkscape:window-x="1323"
     inkscape:window-y="220"
     inkscape:window-maximized="0"
     inkscape:current-layer="svg12" /><path
     d="m10 4h-6c-1.11 0-2 .89-2 2v12c0 1.097.903 2 2 2h16c1.097 0 2-.903 2-2v-10c0-1.11-.9-2-2-2h-8l-2-2z"
     fill="#64b5f6"
     fill-rule="nonzero"
     id="path2" /><style
     type="text/css"
     id="style4">
	.st0{fill:#326DE6;}
	.st1{fill:#FFFFFF;}
	.st2{fill:#326DE5;}
</style><path
     inkscape:connector-curvature="0"
     style="fill:#ab47bc;stroke-width:11.85173416"
     d="m 20.628993,12.976854 -3.198954,2.572593 3.198954,2.478343 v -5.050936 m -8.283771,6.667259 -1.818344,-1.14489 v -6.061147 l 2.020362,-0.673451 2.895895,2.242627 5.859069,-5.4078817 2.693817,1.6836677 v 10.438509 l -3.367271,1.346907 -5.158704,-4.943172 -3.124824,2.518714 m 0.202037,-2.963238 1.252656,-1.158344 -1.252656,-1.198775 z"
     id="path2-3" /></svg>