<?xml version="1.0" encoding="UTF-8" standalone="no"?>
<svg
   xmlns:dc="http://purl.org/dc/elements/1.1/"
   xmlns:cc="http://creativecommons.org/ns#"
   xmlns:rdf="http://www.w3.org/1999/02/22-rdf-syntax-ns#"
   xmlns:svg="http://www.w3.org/2000/svg"
   xmlns="http://www.w3.org/2000/svg"
   xmlns:sodipodi="http://sodipodi.sourceforge.net/DTD/sodipodi-0.dtd"
   xmlns:inkscape="http://www.inkscape.org/namespaces/inkscape"
   clip-rule="evenodd"
   stroke-linejoin="round"
   stroke-miterlimit="1.4142"
   version="1.1"
   viewBox="0 0 24 24"
   xml:space="preserve"
   id="svg6"
   sodipodi:docname="folderopenvs.svg"
   inkscape:version="0.92.4 (5da689c313, 2019-01-14)"><metadata
     id="metadata12"><rdf:RDF><cc:Work
         rdf:about=""><dc:format>image/svg+xml</dc:format><dc:type
           rdf:resource="http://purl.org/dc/dcmitype/StillImage" /><dc:title></dc:title></cc:Work></rdf:RDF></metadata><defs
     id="defs10" /><sodipodi:namedview
     pagecolor="#ffffff"
     bordercolor="#666666"
     borderopacity="1"
     objecttolerance="10"
     gridtolerance="10"
     guidetolerance="10"
     inkscape:pageopacity="0"
     inkscape:pageshadow="2"
     inkscape:window-width="1251"
     inkscape:window-height="745"
     id="namedview8"
     showgrid="false"
     inkscape:zoom="3.4766083"
     inkscape:cx="-7.9015409"
     inkscape:cy="8.7244699"
     inkscape:window-x="1078"
     inkscape:window-y="170"
     inkscape:window-maximized="0"
     inkscape:current-layer="svg6" /><path
     d="m19 20h-15c-1.11 0-2-.9-2-2v-12c0-1.11.89-2 2-2h6l2 2h7c1.097 0 2 .903 2 2h-17v10l2.14-8h17.07l-2.28 8.5c-.23.87-1.01 1.5-1.93 1.5z"
     style="fill:#64b7f6;fill-opacity:1"
     id="path2"
     fill="#039be5" /><path
     inkscape:connector-curvature="0"
     style="fill:#ab47bc;stroke-width:11.85173416"
     d="m 20.629115,12.9764 -3.198954,2.572593 3.198954,2.478343 V 12.9764 M 12.345344,19.643659 10.527,18.498769 v -6.061147 l 2.020362,-0.673451 2.895895,2.242627 5.859069,-5.4078815 2.693817,1.6836675 V 20.721093 L 20.628872,22.068 15.470168,17.124828 12.345344,19.643542 m 0.202037,-2.963238 1.252656,-1.158344 -1.252656,-1.198775 z"
     id="path2-3" /></svg>