<?xml version="1.0" encoding="UTF-8" standalone="no"?>
<!-- Created with Inkscape (http://www.inkscape.org/) -->

<svg
   xmlns:dc="http://purl.org/dc/elements/1.1/"
   xmlns:cc="http://creativecommons.org/ns#"
   xmlns:rdf="http://www.w3.org/1999/02/22-rdf-syntax-ns#"
   xmlns:svg="http://www.w3.org/2000/svg"
   xmlns="http://www.w3.org/2000/svg"
   xmlns:sodipodi="http://sodipodi.sourceforge.net/DTD/sodipodi-0.dtd"
   xmlns:inkscape="http://www.inkscape.org/namespaces/inkscape"
   width="112.57693mm"
   height="33.582611mm"
   viewBox="0 0 112.57693 33.58261"
   version="1.1"
   id="svg8"
   inkscape:version="0.92.4 (5da689c313, 2019-01-14)"
   sodipodi:docname="hhslogo.svg">
  <defs
     id="defs2" />
  <sodipodi:namedview
     id="base"
     pagecolor="#ffffff"
     bordercolor="#666666"
     borderopacity="1.0"
     inkscape:pageopacity="0.0"
     inkscape:pageshadow="2"
     inkscape:zoom="2.8"
     inkscape:cx="213.22378"
     inkscape:cy="50.406883"
     inkscape:document-units="mm"
     inkscape:current-layer="layer1"
     showgrid="false"
     fit-margin-top="0"
     fit-margin-left="0"
     fit-margin-right="0"
     fit-margin-bottom="0"
     inkscape:window-width="1920"
     inkscape:window-height="1147"
     inkscape:window-x="1042"
     inkscape:window-y="-8"
     inkscape:window-maximized="1" />
  <metadata
     id="metadata5">
    <rdf:RDF>
      <cc:Work
         rdf:about="">
        <dc:format>image/svg+xml</dc:format>
        <dc:type
           rdf:resource="http://purl.org/dc/dcmitype/StillImage" />
        <dc:title></dc:title>
      </cc:Work>
    </rdf:RDF>
  </metadata>
  <g
     inkscape:label="Layer 1"
     inkscape:groupmode="layer"
     id="layer1"
     transform="translate(-2.2110951,-6.6752815)">
    <path
       inkscape:connector-curvature="0"
       id="path827-7"
       style="fill:#9ea700;fill-opacity:1;fill-rule:nonzero;stroke:none;stroke-width:0.03527778"
       d="M 44.923937,19.798375 H 43.79914 l -0.707744,2.016059 h 2.413211 l 0.71755,2.127001 h 2.955222 l -3.564115,-9.32159 -1.236485,3.54722 z m 42.371432,-6.79069 h 7.67363 v 1.94702 h -5.05531 v 2.22497 h 4.0894 v 1.89798 h -4.0894 v 2.91249 h 5.10399 l 0.27834,1.94716 h -8.00065 z m -11.093446,8.04965 c 0.883708,0.65458 2.078212,1.21091 3.534479,1.21091 1.145119,0 1.636537,-0.60526 1.636537,-1.309161 0,-0.736139 -0.7366,-1.014379 -1.997075,-1.488689 -2.273654,-0.86719 -3.452283,-1.75066 -3.452283,-3.41947 0,-1.96356 1.341967,-3.30507 4.041775,-3.30507 1.734257,0 3.223333,0.71974 3.845273,1.21059 l -0.982129,1.7508 c -0.638175,-0.52352 -1.897592,-1.01437 -2.863144,-1.01437 -1.128535,0 -1.489075,0.52366 -1.489075,1.12888 0,0.57274 0.589492,0.8508 2.126896,1.47271 1.963562,0.80148 3.321752,1.57057 3.321752,3.51758 0,2.09423 -1.406873,3.38709 -4.352215,3.38709 -1.897943,0 -3.321404,-0.539781 -4.188179,-1.26022 z m -5.218996,-5.51367 c -0.637823,-0.45805 -1.357842,-0.85079 -2.666648,-0.85079 -1.489075,0 -2.421819,1.35805 -2.421819,3.92659 0,2.60145 0.981781,3.64878 2.765073,3.64878 0.670983,0 1.210733,-0.359981 1.587146,-0.70365 v -1.83236 h -2.748492 v -1.898131 h 5.350581 v 4.303221 c -0.703791,0.88371 -1.930752,2.06181 -4.549068,2.06181 -4.335995,0 -5.02285,-2.65095 -5.02285,-5.72685 0,-3.12498 1.243541,-5.72643 5.28461,-5.72643 1.668992,0 2.814108,0.58896 3.648781,1.11248 z m -14.15274,4.270129 -0.785283,-2.094059 c -0.09807,-0.245281 -0.294217,-1.014371 -0.343252,-1.47256 -0.06562,0.605509 -0.32738,1.34165 -0.47484,1.71785 l -0.719667,1.848769 z m -2.928408,1.963591 -0.801865,2.15992 h -2.797882 l 4.319765,-10.92962 h 2.290233 l 4.12327,10.92962 h -2.863498 l -0.768705,-2.15992 z m 52.197001,11.479874 h 2.41371 l 0.0737,0.58099 h -3.1496 v -5.440774 h 0.66216 z m -6.527801,-4.392774 c -0.98178,0 -1.61995,0.72774 -1.61995,2.331504 0,1.64387 0.6544,2.20018 1.80022,2.20018 0.850201,0 1.569861,-0.70349 1.569861,-2.3315 0,-1.554564 -0.58032,-2.200184 -1.750131,-2.200184 z m -0.008,5.080144 c -1.95474,0 -2.274,-1.29287 -2.274,-2.82264 0,-1.570544 0.56409,-2.822514 2.42146,-2.822514 1.938871,0 2.274361,1.17023 2.274361,2.822514 0,1.60376 -0.57326,2.82264 -2.421821,2.82264 z m -7.92657,-5.080144 c -0.98249,0 -1.61996,0.72774 -1.61996,2.331504 0,1.64387 0.65405,2.20018 1.79988,2.20018 0.85055,0 1.57056,-0.70349 1.57056,-2.3315 0,-1.554564 -0.58102,-2.200184 -1.75048,-2.200184 z m -0.008,5.080144 c -1.95545,0 -2.27471,-1.29287 -2.27471,-2.82264 0,-1.570544 0.56444,-2.822514 2.42146,-2.822514 1.93887,0 2.27436,1.17023 2.27436,2.822514 0,1.60376 -0.57256,2.82264 -2.42111,2.82264 z m -9.056495,-0.10638 h -0.654388 v -5.440774 h 0.654401 v 2.315374 h 2.715682 v -2.315374 h 0.65476 v 5.440774 h -0.65526 v -2.54428 h -2.715682 z m -4.393128,-4.638624 c -0.269875,-0.18839 -0.564092,-0.33514 -1.153584,-0.33514 -1.063273,0 -1.693333,0.72774 -1.693333,2.331504 0,1.64387 0.654757,2.20018 1.652765,2.20018 0.53975,0 1.038929,-0.22931 1.357842,-0.5723 l 0.376412,0.44952 c -0.384879,0.36862 -0.891821,0.67124 -1.807634,0.67124 -1.96356,0 -2.233435,-1.29287 -2.233435,-2.82264 0,-1.570544 0.539398,-2.822514 2.478265,-2.822514 0.662868,0 1.104193,0.20436 1.391002,0.41716 z m -10.20939,3.648634 c 0.343255,0.22862 0.86713,0.54791 1.709915,0.54791 0.85866,0 1.202266,-0.43381 1.202266,-0.97317 0,-0.53192 -0.408871,-0.74469 -1.260123,-1.08038 -0.997653,-0.39247 -1.586793,-0.72774 -1.586793,-1.53763 0,-0.907984 0.58914,-1.529894 1.759302,-1.529894 0.817739,0 1.382183,0.33528 1.611489,0.52381 l -0.286808,0.49043 c -0.220488,-0.19611 -0.645938,-0.4662 -1.324681,-0.4662 -0.851252,0 -1.120775,0.44196 -1.120775,0.965314 0,0.4173 0.523168,0.70392 1.333148,1.01494 0.850545,0.33459 1.513768,0.69522 1.513768,1.60307 0,0.97318 -0.605366,1.53817 -1.840793,1.53817 -0.99836,0 -1.579385,-0.29476 -1.938867,-0.54846 z m -6.626225,-4.450784 h 3.304469 v 0.58099 h -2.642307 v 1.660804 h 2.135013 v 0.58098 h -2.135013 v 2.03701 h 2.716038 l 0.09843,0.58099 h -3.476625 z m -4.344461,0.81813 c -0.237064,-0.17142 -0.654402,-0.35112 -1.34126,-0.35112 -0.981779,0 -1.619954,0.72774 -1.619954,2.331504 0,1.64387 0.654754,2.20018 1.79987,2.20018 0.523524,0 1.046692,-0.33528 1.251305,-0.5723 v -1.24368 h -1.439336 v -0.56458 h 2.102205 v 2.01276 c -0.302684,0.3926 -0.891824,0.91626 -2.102205,0.91626 -1.96356,0 -2.274356,-1.29287 -2.274356,-2.82264 0,-1.570544 0.564092,-2.822514 2.421467,-2.822514 0.818089,0 1.284462,0.2376 1.570567,0.42541 z m -9.276646,-0.35112 c -0.981782,0 -1.619957,0.72774 -1.619957,2.331504 0,1.64387 0.654757,2.20018 1.799873,2.20018 0.850549,0 1.570567,-0.70349 1.570567,-2.3315 0,-1.554564 -0.58067,-2.200184 -1.750483,-2.200184 z m -0.0081,5.080144 c -1.955449,0 -2.274359,-1.29287 -2.274359,-2.82264 0,-1.570544 0.564092,-2.822514 2.421115,-2.822514 1.939219,0 2.27471,1.17023 2.27471,2.822514 0,1.60376 -0.57291,2.82264 -2.421466,2.82264 z m -9.056336,-0.10638 h -0.654292 v -5.440774 h 0.654296 v 2.315374 h 2.716107 v -2.315374 h 0.654439 v 5.440774 h -0.654539 v -2.54428 h -2.716107 z"
       sodipodi:nodetypes="cccccccccccccccccccccccsscssccsscsscccsssccccccsssccccccccccccccccccccccccssssssssssssssssssssccccccccccccccsssccssscccsscssccsscssccccccccccccccccsssccccccsssccssssssssssccccccccccccc" />
    <path
       inkscape:connector-curvature="0"
       id="path827-9"
       style="fill:#283846;fill-opacity:1;fill-rule:nonzero;stroke:none;stroke-width:0.03527778"
       d="m 16.376062,13.031785 h 4.412333 v 1.11968 H 17.8814 v 1.27935 h 2.351794 v 1.09128 H 17.8814 v 1.67471 h 2.935253 l 0.159985,1.11954 h -4.600576 z m -6.303162,5.08028 h 0.884425 c 0.733806,0 1.382853,-0.5267 1.382853,-1.99443 0,-1.40173 -0.498704,-1.88158 -1.524102,-1.88158 H 10.0729 Z M 8.5864111,13.031785 H 10.91006 c 2.465027,0 2.926143,1.24177 2.926143,3.14236 0,1.86267 -0.771701,3.1422 -3.076487,3.1422 H 8.5864111 Z m 29.7160259,10.92387 h 2.817389 l 3.859496,-11.03465 h -2.347383 z m -8.947818,0.03291 h -2.585191 v -10.92934 h 2.585191 v 4.23746 h 3.845031 v -4.23746 h 2.584908 v 10.92934 H 33.19965 v -4.63074 h -3.845031 v 4.63074"
       sodipodi:nodetypes="ccccccccccccccssscccssscccccccccccccccccccc" />
  </g>
</svg>
