<?xml version="1.0" encoding="UTF-8" standalone="no"?>
<!-- Created with Inkscape (http://www.inkscape.org/) -->

<svg
   xmlns:dc="http://purl.org/dc/elements/1.1/"
   xmlns:cc="http://creativecommons.org/ns#"
   xmlns:rdf="http://www.w3.org/1999/02/22-rdf-syntax-ns#"
   xmlns:svg="http://www.w3.org/2000/svg"
   xmlns="http://www.w3.org/2000/svg"
   xmlns:sodipodi="http://sodipodi.sourceforge.net/DTD/sodipodi-0.dtd"
   xmlns:inkscape="http://www.inkscape.org/namespaces/inkscape"
   width="112.57693mm"
   height="33.582611mm"
   viewBox="0 0 112.57693 33.58261"
   version="1.1"
   id="svg8"
   inkscape:version="0.92.4 (5da689c313, 2019-01-14)"
   sodipodi:docname="hhslogozoom.svg">
  <defs
     id="defs2" />
  <sodipodi:namedview
     id="base"
     pagecolor="#ffffff"
     bordercolor="#666666"
     borderopacity="1.0"
     inkscape:pageopacity="0.0"
     inkscape:pageshadow="2"
     inkscape:zoom="1.4"
     inkscape:cx="416.51093"
     inkscape:cy="-87.670354"
     inkscape:document-units="mm"
     inkscape:current-layer="layer1"
     showgrid="false"
     fit-margin-top="0"
     fit-margin-left="0"
     fit-margin-right="0"
     fit-margin-bottom="0"
     inkscape:window-width="1920"
     inkscape:window-height="1147"
     inkscape:window-x="1042"
     inkscape:window-y="-8"
     inkscape:window-maximized="1" />
  <metadata
     id="metadata5">
    <rdf:RDF>
      <cc:Work
         rdf:about="">
        <dc:format>image/svg+xml</dc:format>
        <dc:type
           rdf:resource="http://purl.org/dc/dcmitype/StillImage" />
        <dc:title></dc:title>
      </cc:Work>
    </rdf:RDF>
  </metadata>
  <g
     inkscape:label="Layer 1"
     inkscape:groupmode="layer"
     id="layer1"
     transform="translate(-2.2110951,-6.6752815)">
    <path
       inkscape:connector-curvature="0"
       id="path827"
       style="fill:#9ea700;fill-opacity:1;fill-rule:nonzero;stroke:none;stroke-width:0.03527778"
       d="m 44.923936,19.798375 h -1.124797 l -0.707743,2.01606 h 2.413212 l 0.71755,2.127 h 2.955219 l -3.564114,-9.32159 -1.236486,3.54722 z m 11.90625,0.01542 -0.785283,-2.09406 c -0.09807,-0.24528 -0.294217,-1.01437 -0.343253,-1.47256 -0.06562,0.60551 -0.327378,1.34165 -0.474839,1.71785 l -0.719667,1.84877 z m -2.928408,1.96359 -0.801864,2.15992 h -2.797881 l 4.319764,-10.92962 h 2.290234 l 4.123267,10.92962 H 58.1718 l -0.768703,-2.15992 z m 52.197002,11.479874 h 2.41371 l 0.0737,0.58099 h -3.1496 v -5.440774 h 0.66216 z m -6.527802,-4.392774 c -0.981778,0 -1.619953,0.72774 -1.619953,2.331504 0,1.64387 0.654403,2.20018 1.800223,2.20018 0.850202,0 1.569862,-0.70349 1.569862,-2.3315 0,-1.554564 -0.58032,-2.200184 -1.750132,-2.200184 z m -0.008,5.080144 c -1.954739,0 -2.274003,-1.29287 -2.274003,-2.82264 0,-1.570544 0.564092,-2.822514 2.421463,-2.822514 1.938872,0 2.274362,1.17023 2.274362,2.822514 0,1.60376 -0.57326,2.82264 -2.421822,2.82264 z m -42.56437,-4.729024 c -0.237066,-0.17142 -0.654402,-0.35112 -1.341261,-0.35112 -0.98178,0 -1.619955,0.72774 -1.619955,2.331504 0,1.64387 0.654755,2.20018 1.799872,2.20018 0.523522,0 1.046692,-0.33528 1.251303,-0.5723 v -1.24368 h -1.439334 v -0.56458 h 2.102203 v 2.01276 c -0.302683,0.3926 -0.891822,0.91626 -2.102203,0.91626 -1.963561,0 -2.274358,-1.29287 -2.274358,-2.82264 0,-1.570544 0.564092,-2.822514 2.421467,-2.822514 0.818091,0 1.284464,0.2376 1.570567,0.42541 z m -9.276645,-0.35112 c -0.98178,0 -1.619955,0.72774 -1.619955,2.331504 0,1.64387 0.654755,2.20018 1.799872,2.20018 0.850547,0 1.570567,-0.70349 1.570567,-2.3315 0,-1.554564 -0.580672,-2.200184 -1.750484,-2.200184 z m -0.0081,5.080144 c -1.955448,0 -2.274359,-1.29287 -2.274359,-2.82264 0,-1.570544 0.564092,-2.822514 2.421114,-2.822514 1.93922,0 2.274711,1.17023 2.274711,2.822514 0,1.60376 -0.572911,2.82264 -2.421466,2.82264 z m -9.056336,-0.10638 H 38.00323 v -5.440774 h 0.654297 v 2.315374 h 2.716107 v -2.315374 h 0.654438 v 5.440774 h -0.654438 v -2.54428 h -2.716107 z"
       sodipodi:nodetypes="cccccccccccccccccccccccccccccccsssssssssscsssccccccsssccssssssssssccccccccccccc" />
    <path
       style="fill:#ff0000;stroke:#ff0000;stroke-width:0.1;stroke-linecap:butt;stroke-linejoin:miter;stroke-miterlimit:4;stroke-dasharray:none;stroke-opacity:1"
       d="M 45.344595,20.07763 95.168874,37.010239"
       id="path4570"
       inkscape:connector-curvature="0" />
    <path
       style="fill:#ff0000;stroke:#ff0000;stroke-width:0.1;stroke-linecap:butt;stroke-linejoin:miter;stroke-miterlimit:4;stroke-dasharray:none;stroke-opacity:1"
       d="M 45.344595,17.951513 95.168872,9.7259668"
       id="path4572"
       inkscape:connector-curvature="0" />
    <path
       style="fill:#ffffff;stroke:#ff0000;stroke-width:0.1;stroke-linecap:butt;stroke-linejoin:miter;stroke-miterlimit:4;stroke-dasharray:none;stroke-opacity:1"
       d="M 55.763291,9.7259668 H 95.168874 V 37.010239 H 55.763291 Z"
       id="path4559"
       inkscape:connector-curvature="0" />
    <path
       inkscape:connector-curvature="0"
       id="path827-9"
       style="fill:#283846;fill-opacity:1;fill-rule:nonzero;stroke:none;stroke-width:0.03527778"
       d="m 16.376062,13.031785 h 4.412333 v 1.11968 H 17.8814 v 1.27935 h 2.351794 v 1.09128 H 17.8814 v 1.67471 h 2.935253 l 0.159985,1.11954 h -4.600576 z m -6.303162,5.08028 h 0.884425 c 0.733806,0 1.382853,-0.5267 1.382853,-1.99443 0,-1.40173 -0.498704,-1.88158 -1.524102,-1.88158 H 10.0729 Z M 8.5864111,13.031785 H 10.91006 c 2.465027,0 2.926143,1.24177 2.926143,3.14236 0,1.86267 -0.771701,3.1422 -3.076487,3.1422 H 8.5864111 Z m 29.7160259,10.92387 h 2.817389 l 3.859496,-11.03465 h -2.347383 z m -8.947818,0.03291 h -2.585191 v -10.92934 h 2.585191 v 4.23746 h 3.845031 v -4.23746 h 2.584908 v 10.92934 H 33.19965 v -4.63074 h -3.845031 v 4.63074"
       sodipodi:nodetypes="ccccccccccccccssscccssscccccccccccccccccccc" />
    <g
       id="g4546"
       transform="matrix(1.3595913,0,0,1.3595913,-3.0995616,-40.406518)"
       style="stroke-width:0.73551512">
      <path
         sodipodi:nodetypes="cccccccc"
         inkscape:connector-curvature="0"
         id="path827-8"
         d="m 64.959229,36.873202 -0.354249,1.019164 5.134696,15.316732 h -10.56057 l -1.310361,3.7321 H 72.277924 V 36.873202 Z"
         style="fill:#9ea700;fill-opacity:1;fill-rule:nonzero;stroke:none;stroke-width:0.02594735" />
      <path
         sodipodi:nodetypes="ccccc"
         inkscape:connector-curvature="0"
         id="path827-0"
         d="m 43.29452,36.873202 v 20.067996 h 3.072081 l 7.017744,-20.067996 z"
         style="fill:#223343;fill-opacity:1;fill-rule:nonzero;stroke:none;stroke-width:0.02594735" />
    </g>
    <path
       style="fill:none;fill-opacity:1;stroke:#ff0000;stroke-width:0.1;stroke-linecap:round;stroke-linejoin:round;stroke-miterlimit:4;stroke-dasharray:none;stroke-dashoffset:0;stroke-opacity:1"
       d="m 42.155418,17.951513 h 3.189177 v 2.126117 h -3.189177 z"
       id="rect4563"
       inkscape:connector-curvature="0" />
    <path
       style="fill:#ff0000;stroke:#ff0000;stroke-width:0.1;stroke-linecap:butt;stroke-linejoin:miter;stroke-miterlimit:4;stroke-dasharray:none;stroke-opacity:1"
       d="M 42.155418,17.951513 55.763291,9.7259668"
       id="path4566"
       inkscape:connector-curvature="0" />
    <path
       style="fill:#ff0000;stroke:#ff0000;stroke-width:0.1;stroke-linecap:butt;stroke-linejoin:miter;stroke-miterlimit:4;stroke-dasharray:none;stroke-opacity:1"
       d="M 42.155418,20.07763 55.763291,37.010239"
       id="path4568"
       inkscape:connector-curvature="0" />
    <path
       style="fill:none;stroke:#ff0000;stroke-width:0.1;stroke-linecap:butt;stroke-linejoin:miter;stroke-miterlimit:4;stroke-dasharray:none;stroke-opacity:1"
       d="M 55.763293,9.7259666 H 95.168875 V 37.01024 H 55.763293 Z"
       id="path4559-4"
       inkscape:connector-curvature="0" />
  </g>
</svg>
