<?xml version="1.0" encoding="utf-8"?>
<svg viewBox="189.761 18.79 218.504 212.715" width="218.504" height="212.715" xmlns="http://www.w3.org/2000/svg" xmlns:bx="https://boxy-svg.com">
  <text x="79.906" y="118.096" style="white-space: pre; fill: rgb(51, 51, 51); font-size: 28px;" transform="matrix(1, 0, 0, 1, 109.870743, 17.038778)">HTML<tspan x="79.90599822998047" dy="1em">​</tspan></text>
  <text x="188.014" y="59.342" style="white-space: pre; fill: rgb(51, 51, 51); font-size: 28px;" transform="matrix(1, 0, 0, 1, 19.38896, -11.163341)">CSS<tspan x="188.01400756835938" dy="1em">​</tspan></text>
  <text x="267.333" y="119.271" style="white-space: pre; fill: rgb(51, 51, 51); font-size: 28px;" transform="matrix(1, 0, 0, 1, -54.641598, 104.582848)">JS<tspan x="267.3330078125" dy="1em">​</tspan></text>
  <path d="M 143.799 94.15 H 170.417 L 170.417 84.438 L 196.316 97.388 L 170.417 110.337 L 170.417 100.625 H 143.799 V 94.15 Z" style="fill: rgb(216, 216, 216);" transform="matrix(0, -1, 1, 0, 134.10495, 337.687927)" bx:shape="arrow 143.799 84.438 52.517 25.899 6.475 25.899 0 1@04d492ba"/>
  <path d="M 143.799 94.15 H 170.417 L 170.417 84.438 L 196.316 97.388 L 170.417 110.337 L 170.417 100.625 H 143.799 V 94.15 Z" style="fill: rgb(216, 216, 216);" transform="matrix(0, 1, 1, 0, 134.104858, -89.563942)" bx:shape="arrow 143.799 84.438 52.517 25.899 6.475 25.899 0 1@04d492ba"/>
  <text x="255.582" y="88.719" style="white-space: pre; fill: rgb(51, 51, 51); font-size: 28px;">.class &amp; #id</text>
  <text style="white-space: pre; fill: rgb(51, 51, 51); font-size: 28px;" x="257.931" y="181.551">DOM &amp; on...</text>
</svg>