<?xml version="1.0" encoding="UTF-8" standalone="no"?>
<svg
   xmlns:dc="http://purl.org/dc/elements/1.1/"
   xmlns:cc="http://creativecommons.org/ns#"
   xmlns:rdf="http://www.w3.org/1999/02/22-rdf-syntax-ns#"
   xmlns:svg="http://www.w3.org/2000/svg"
   xmlns="http://www.w3.org/2000/svg"
   xmlns:sodipodi="http://sodipodi.sourceforge.net/DTD/sodipodi-0.dtd"
   xmlns:inkscape="http://www.inkscape.org/namespaces/inkscape"
   width="1120.3556mm"
   height="1035.3342mm"
   viewBox="0 0 1120.3556 1035.3342"
   version="1.1"
   id="svg8"
   inkscape:version="1.0.1 (3bc2e813f5, 2020-09-07)"
   sodipodi:docname="preflight.inkscape.svg">
  <defs
     id="defs2">
    <marker
       style="overflow:visible"
       id="Arrow2Send"
       refX="0"
       refY="0"
       orient="auto"
       inkscape:stockid="Arrow2Send"
       inkscape:isstock="true">
      <path
         transform="matrix(-0.3,0,0,-0.3,0.69,0)"
         d="M 8.7185878,4.0337352 -2.2072895,0.01601326 8.7185884,-4.0017078 c -1.7454984,2.3720609 -1.7354408,5.6174519 -6e-7,8.035443 z"
         style="fill:#808080;fill-opacity:1;fill-rule:evenodd;stroke:#808080;stroke-width:0.625;stroke-linejoin:round;stroke-opacity:1"
         id="path1052" />
    </marker>
    <radialGradient
       cy="19.52499"
       cx="106.73546"
       id="r"
       gradientTransform="scale(1.2320179,0.81167652)"
       fx="106.73546"
       fy="19.52499"
       r="78.326782"
       gradientUnits="userSpaceOnUse">
      <stop
         offset="0"
         stop-color="#f06b59"
         id="stop12" />
      <stop
         offset="1"
         stop-color="#df2227"
         id="stop14" />
    </radialGradient>
    <radialGradient
       r="122.76932"
       cy="108.80645"
       cx="122.26707"
       id="g"
       gradientTransform="scale(0.92838267,1.077142)"
       fx="122.26707"
       fy="108.80645"
       gradientUnits="userSpaceOnUse">
      <stop
         offset="0.65"
         stop-color="#4cb749"
         id="stop17" />
      <stop
         offset="1"
         stop-color="#388b41"
         id="stop19" />
    </radialGradient>
    <radialGradient
       r="111.5125"
       cy="102.2451"
       cx="187.90099"
       id="y"
       gradientTransform="scale(0.86406979,1.1573139)"
       fx="187.90099"
       fy="102.2451"
       gradientUnits="userSpaceOnUse">
      <stop
         offset="0.6"
         stop-color="#FCD209"
         id="stop22" />
      <stop
         offset="0.7"
         stop-color="#f7c616"
         id="stop24" />
      <stop
         offset="1"
         stop-color="#bc821e"
         id="stop26" />
    </radialGradient>
    <radialGradient
       r="99"
       cy="78.099998"
       cx="127.5"
       spreadMethod="pad"
       id="cf"
       fx="127.5"
       fy="78.099998"
       gradientUnits="userSpaceOnUse">
      <stop
         offset="0.1"
         stop-color="#7FB3DF"
         id="stop29" />
      <stop
         offset="0.9"
         stop-color="#0F5B94"
         id="stop31" />
    </radialGradient>
    <radialGradient
       id="cb"
       r="99"
       cy="78.099998"
       cx="127.5"
       fx="127.5"
       fy="78.099998"
       gradientUnits="userSpaceOnUse">
      <stop
         offset="0"
         stop-color="#F6F0EE"
         id="stop34" />
      <stop
         offset="1"
         stop-color="#ddd"
         id="stop36" />
    </radialGradient>
    <marker
       style="overflow:visible"
       id="Arrow2Send-0"
       refX="0"
       refY="0"
       orient="auto"
       inkscape:stockid="Arrow2Send"
       inkscape:isstock="true">
      <path
         transform="matrix(-0.3,0,0,-0.3,0.69,0)"
         d="M 8.7185878,4.0337352 -2.2072895,0.01601326 8.7185884,-4.0017078 c -1.7454984,2.3720609 -1.7354408,5.6174519 -6e-7,8.035443 z"
         style="fill:#808080;fill-opacity:1;fill-rule:evenodd;stroke:#808080;stroke-width:0.625;stroke-linejoin:round;stroke-opacity:1"
         id="path1052-4" />
    </marker>
    <marker
       style="overflow:visible"
       id="Arrow2Send-0-1"
       refX="0"
       refY="0"
       orient="auto"
       inkscape:stockid="Arrow2Send"
       inkscape:isstock="true">
      <path
         transform="matrix(-0.3,0,0,-0.3,0.69,0)"
         d="M 8.7185878,4.0337352 -2.2072895,0.01601326 8.7185884,-4.0017078 c -1.7454984,2.3720609 -1.7354408,5.6174519 -6e-7,8.035443 z"
         style="fill:#808080;fill-opacity:1;fill-rule:evenodd;stroke:#808080;stroke-width:0.625;stroke-linejoin:round;stroke-opacity:1"
         id="path1052-4-8" />
    </marker>
    <marker
       style="overflow:visible"
       id="Arrow2Send-0-1-2"
       refX="0"
       refY="0"
       orient="auto"
       inkscape:stockid="Arrow2Send"
       inkscape:isstock="true">
      <path
         transform="matrix(-0.3,0,0,-0.3,0.69,0)"
         d="M 8.7185878,4.0337352 -2.2072895,0.01601326 8.7185884,-4.0017078 c -1.7454984,2.3720609 -1.7354408,5.6174519 -6e-7,8.035443 z"
         style="fill:#808080;fill-opacity:1;fill-rule:evenodd;stroke:#808080;stroke-width:0.625;stroke-linejoin:round;stroke-opacity:1"
         id="path1052-4-8-4" />
    </marker>
    <marker
       style="overflow:visible"
       id="Arrow2Send-2"
       refX="0"
       refY="0"
       orient="auto"
       inkscape:stockid="Arrow2Send"
       inkscape:isstock="true">
      <path
         transform="matrix(-0.3,0,0,-0.3,0.69,0)"
         d="M 8.7185878,4.0337352 -2.2072895,0.01601326 8.7185884,-4.0017078 c -1.7454984,2.3720609 -1.7354408,5.6174519 -6e-7,8.035443 z"
         style="fill:#808080;fill-opacity:1;fill-rule:evenodd;stroke:#808080;stroke-width:0.625;stroke-linejoin:round;stroke-opacity:1"
         id="path1052-3" />
    </marker>
    <marker
       style="overflow:visible"
       id="Arrow2Send-2-7"
       refX="0"
       refY="0"
       orient="auto"
       inkscape:stockid="Arrow2Send"
       inkscape:isstock="true">
      <path
         transform="matrix(-0.3,0,0,-0.3,0.69,0)"
         d="M 8.7185878,4.0337352 -2.2072895,0.01601326 8.7185884,-4.0017078 c -1.7454984,2.3720609 -1.7354408,5.6174519 -6e-7,8.035443 z"
         style="fill:#808080;fill-opacity:1;fill-rule:evenodd;stroke:#808080;stroke-width:0.625;stroke-linejoin:round;stroke-opacity:1"
         id="path1052-3-7" />
    </marker>
    <marker
       style="overflow:visible"
       id="Arrow2Send-0-2"
       refX="0"
       refY="0"
       orient="auto"
       inkscape:stockid="Arrow2Send"
       inkscape:isstock="true">
      <path
         transform="matrix(-0.3,0,0,-0.3,0.69,0)"
         d="M 8.7185878,4.0337352 -2.2072895,0.01601326 8.7185884,-4.0017078 c -1.7454984,2.3720609 -1.7354408,5.6174519 -6e-7,8.035443 z"
         style="fill:#808080;fill-opacity:1;fill-rule:evenodd;stroke:#808080;stroke-width:0.625;stroke-linejoin:round;stroke-opacity:1"
         id="path1052-4-9" />
    </marker>
    <marker
       style="overflow:visible"
       id="Arrow2Send-0-8"
       refX="0"
       refY="0"
       orient="auto"
       inkscape:stockid="Arrow2Send"
       inkscape:isstock="true">
      <path
         transform="matrix(-0.3,0,0,-0.3,0.69,0)"
         d="M 8.7185878,4.0337352 -2.2072895,0.01601326 8.7185884,-4.0017078 c -1.7454984,2.3720609 -1.7354408,5.6174519 -6e-7,8.035443 z"
         style="fill:#b3b3b3;fill-opacity:1;fill-rule:evenodd;stroke:#b3b3b3;stroke-width:0.625;stroke-linejoin:round;stroke-opacity:1"
         id="path1052-4-91" />
    </marker>
    <marker
       style="overflow:visible"
       id="Arrow2Send-0-2-7"
       refX="0"
       refY="0"
       orient="auto"
       inkscape:stockid="Arrow2Send"
       inkscape:isstock="true">
      <path
         transform="matrix(-0.3,0,0,-0.3,0.69,0)"
         d="M 8.7185878,4.0337352 -2.2072895,0.01601326 8.7185884,-4.0017078 c -1.7454984,2.3720609 -1.7354408,5.6174519 -6e-7,8.035443 z"
         style="fill:#808080;fill-opacity:1;fill-rule:evenodd;stroke:#808080;stroke-width:0.625;stroke-linejoin:round;stroke-opacity:1"
         id="path1052-4-9-5" />
    </marker>
    <marker
       style="overflow:visible"
       id="Arrow2Send-0-8-9"
       refX="0"
       refY="0"
       orient="auto"
       inkscape:stockid="Arrow2Send"
       inkscape:isstock="true">
      <path
         transform="matrix(-0.3,0,0,-0.3,0.69,0)"
         d="M 8.7185878,4.0337352 -2.2072895,0.01601326 8.7185884,-4.0017078 c -1.7454984,2.3720609 -1.7354408,5.6174519 -6e-7,8.035443 z"
         style="fill:#808080;fill-opacity:1;fill-rule:evenodd;stroke:#808080;stroke-width:0.625;stroke-linejoin:round;stroke-opacity:1"
         id="path1052-4-91-1" />
    </marker>
    <marker
       style="overflow:visible"
       id="Arrow2Send-0-2-7-2"
       refX="0"
       refY="0"
       orient="auto"
       inkscape:stockid="Arrow2Send"
       inkscape:isstock="true">
      <path
         transform="matrix(-0.3,0,0,-0.3,0.69,0)"
         d="M 8.7185878,4.0337352 -2.2072895,0.01601326 8.7185884,-4.0017078 c -1.7454984,2.3720609 -1.7354408,5.6174519 -6e-7,8.035443 z"
         style="fill:#808080;fill-opacity:1;fill-rule:evenodd;stroke:#808080;stroke-width:0.625;stroke-linejoin:round;stroke-opacity:1"
         id="path1052-4-9-5-4" />
    </marker>
    <marker
       style="overflow:visible"
       id="Arrow2Send-0-8-9-7"
       refX="0"
       refY="0"
       orient="auto"
       inkscape:stockid="Arrow2Send"
       inkscape:isstock="true">
      <path
         transform="matrix(-0.3,0,0,-0.3,0.69,0)"
         d="M 8.7185878,4.0337352 -2.2072895,0.01601326 8.7185884,-4.0017078 c -1.7454984,2.3720609 -1.7354408,5.6174519 -6e-7,8.035443 z"
         style="fill:#808080;fill-opacity:1;fill-rule:evenodd;stroke:#808080;stroke-width:0.625;stroke-linejoin:round;stroke-opacity:1"
         id="path1052-4-91-1-6" />
    </marker>
    <marker
       style="overflow:visible"
       id="Arrow2Send-0-2-7-2-8"
       refX="0"
       refY="0"
       orient="auto"
       inkscape:stockid="Arrow2Send"
       inkscape:isstock="true">
      <path
         transform="matrix(-0.3,0,0,-0.3,0.69,0)"
         d="M 8.7185878,4.0337352 -2.2072895,0.01601326 8.7185884,-4.0017078 c -1.7454984,2.3720609 -1.7354408,5.6174519 -6e-7,8.035443 z"
         style="fill:#808080;fill-opacity:1;fill-rule:evenodd;stroke:#808080;stroke-width:0.625;stroke-linejoin:round;stroke-opacity:1"
         id="path1052-4-9-5-4-7" />
    </marker>
    <marker
       style="overflow:visible"
       id="Arrow2Send-0-8-9-6"
       refX="0"
       refY="0"
       orient="auto"
       inkscape:stockid="Arrow2Send"
       inkscape:isstock="true">
      <path
         transform="matrix(-0.3,0,0,-0.3,0.69,0)"
         d="M 8.7185878,4.0337352 -2.2072895,0.01601326 8.7185884,-4.0017078 c -1.7454984,2.3720609 -1.7354408,5.6174519 -6e-7,8.035443 z"
         style="fill:#808080;fill-opacity:1;fill-rule:evenodd;stroke:#808080;stroke-width:0.625;stroke-linejoin:round;stroke-opacity:1"
         id="path1052-4-91-1-5" />
    </marker>
    <marker
       style="overflow:visible"
       id="Arrow2Send-0-2-7-2-9"
       refX="0"
       refY="0"
       orient="auto"
       inkscape:stockid="Arrow2Send"
       inkscape:isstock="true">
      <path
         transform="matrix(-0.3,0,0,-0.3,0.69,0)"
         d="M 8.7185878,4.0337352 -2.2072895,0.01601326 8.7185884,-4.0017078 c -1.7454984,2.3720609 -1.7354408,5.6174519 -6e-7,8.035443 z"
         style="fill:#808080;fill-opacity:1;fill-rule:evenodd;stroke:#808080;stroke-width:0.625;stroke-linejoin:round;stroke-opacity:1"
         id="path1052-4-9-5-4-77" />
    </marker>
    <marker
       style="overflow:visible"
       id="Arrow2Send-0-8-9-0"
       refX="0"
       refY="0"
       orient="auto"
       inkscape:stockid="Arrow2Send"
       inkscape:isstock="true">
      <path
         transform="matrix(-0.3,0,0,-0.3,0.69,0)"
         d="M 8.7185878,4.0337352 -2.2072895,0.01601326 8.7185884,-4.0017078 c -1.7454984,2.3720609 -1.7354408,5.6174519 -6e-7,8.035443 z"
         style="fill:#808080;fill-opacity:1;fill-rule:evenodd;stroke:#808080;stroke-width:0.625;stroke-linejoin:round;stroke-opacity:1"
         id="path1052-4-91-1-1" />
    </marker>
    <marker
       style="overflow:visible"
       id="Arrow2Send-0-2-7-2-6"
       refX="0"
       refY="0"
       orient="auto"
       inkscape:stockid="Arrow2Send"
       inkscape:isstock="true">
      <path
         transform="matrix(-0.3,0,0,-0.3,0.69,0)"
         d="M 8.7185878,4.0337352 -2.2072895,0.01601326 8.7185884,-4.0017078 c -1.7454984,2.3720609 -1.7354408,5.6174519 -6e-7,8.035443 z"
         style="fill:#808080;fill-opacity:1;fill-rule:evenodd;stroke:#808080;stroke-width:0.625;stroke-linejoin:round;stroke-opacity:1"
         id="path1052-4-9-5-4-6" />
    </marker>
    <marker
       style="overflow:visible"
       id="Arrow2Send-0-12"
       refX="0"
       refY="0"
       orient="auto"
       inkscape:stockid="Arrow2Send"
       inkscape:isstock="true">
      <path
         transform="matrix(-0.3,0,0,-0.3,0.69,0)"
         d="M 8.7185878,4.0337352 -2.2072895,0.01601326 8.7185884,-4.0017078 c -1.7454984,2.3720609 -1.7354408,5.6174519 -6e-7,8.035443 z"
         style="fill:#808080;fill-opacity:1;fill-rule:evenodd;stroke:#808080;stroke-width:0.625;stroke-linejoin:round;stroke-opacity:1"
         id="path1052-4-98" />
    </marker>
    <marker
       style="overflow:visible"
       id="Arrow2Send-0-2-2"
       refX="0"
       refY="0"
       orient="auto"
       inkscape:stockid="Arrow2Send"
       inkscape:isstock="true">
      <path
         transform="matrix(-0.3,0,0,-0.3,0.69,0)"
         d="M 8.7185878,4.0337352 -2.2072895,0.01601326 8.7185884,-4.0017078 c -1.7454984,2.3720609 -1.7354408,5.6174519 -6e-7,8.035443 z"
         style="fill:#808080;fill-opacity:1;fill-rule:evenodd;stroke:#808080;stroke-width:0.625;stroke-linejoin:round;stroke-opacity:1"
         id="path1052-4-9-9" />
    </marker>
    <marker
       style="overflow:visible"
       id="Arrow2Send-0-8-3"
       refX="0"
       refY="0"
       orient="auto"
       inkscape:stockid="Arrow2Send"
       inkscape:isstock="true">
      <path
         transform="matrix(-0.3,0,0,-0.3,0.69,0)"
         d="M 8.7185878,4.0337352 -2.2072895,0.01601326 8.7185884,-4.0017078 c -1.7454984,2.3720609 -1.7354408,5.6174519 -6e-7,8.035443 z"
         style="fill:#808080;fill-opacity:1;fill-rule:evenodd;stroke:#808080;stroke-width:0.625;stroke-linejoin:round;stroke-opacity:1"
         id="path1052-4-91-12" />
    </marker>
    <marker
       style="overflow:visible"
       id="Arrow2Send-0-2-7-0"
       refX="0"
       refY="0"
       orient="auto"
       inkscape:stockid="Arrow2Send"
       inkscape:isstock="true">
      <path
         transform="matrix(-0.3,0,0,-0.3,0.69,0)"
         d="M 8.7185878,4.0337352 -2.2072895,0.01601326 8.7185884,-4.0017078 c -1.7454984,2.3720609 -1.7354408,5.6174519 -6e-7,8.035443 z"
         style="fill:#808080;fill-opacity:1;fill-rule:evenodd;stroke:#808080;stroke-width:0.625;stroke-linejoin:round;stroke-opacity:1"
         id="path1052-4-9-5-6" />
    </marker>
    <marker
       style="overflow:visible"
       id="Arrow2Send-0-21"
       refX="0"
       refY="0"
       orient="auto"
       inkscape:stockid="Arrow2Send"
       inkscape:isstock="true">
      <path
         transform="matrix(-0.3,0,0,-0.3,0.69,0)"
         d="M 8.7185878,4.0337352 -2.2072895,0.01601326 8.7185884,-4.0017078 c -1.7454984,2.3720609 -1.7354408,5.6174519 -6e-7,8.035443 z"
         style="fill:#808080;fill-opacity:1;fill-rule:evenodd;stroke:#808080;stroke-width:0.625;stroke-linejoin:round;stroke-opacity:1"
         id="path1052-4-1" />
    </marker>
    <marker
       style="overflow:visible"
       id="Arrow2Send-0-2-9"
       refX="0"
       refY="0"
       orient="auto"
       inkscape:stockid="Arrow2Send"
       inkscape:isstock="true">
      <path
         transform="matrix(-0.3,0,0,-0.3,0.69,0)"
         d="M 8.7185878,4.0337352 -2.2072895,0.01601326 8.7185884,-4.0017078 c -1.7454984,2.3720609 -1.7354408,5.6174519 -6e-7,8.035443 z"
         style="fill:#808080;fill-opacity:1;fill-rule:evenodd;stroke:#808080;stroke-width:0.625;stroke-linejoin:round;stroke-opacity:1"
         id="path1052-4-9-99" />
    </marker>
    <marker
       style="overflow:visible"
       id="Arrow2Send-0-21-4"
       refX="0"
       refY="0"
       orient="auto"
       inkscape:stockid="Arrow2Send"
       inkscape:isstock="true">
      <path
         transform="matrix(-0.3,0,0,-0.3,0.69,0)"
         d="M 8.7185878,4.0337352 -2.2072895,0.01601326 8.7185884,-4.0017078 c -1.7454984,2.3720609 -1.7354408,5.6174519 -6e-7,8.035443 z"
         style="fill:#808080;fill-opacity:1;fill-rule:evenodd;stroke:#808080;stroke-width:0.625;stroke-linejoin:round;stroke-opacity:1"
         id="path1052-4-1-5" />
    </marker>
    <marker
       style="overflow:visible"
       id="Arrow2Send-0-2-9-1"
       refX="0"
       refY="0"
       orient="auto"
       inkscape:stockid="Arrow2Send"
       inkscape:isstock="true">
      <path
         transform="matrix(-0.3,0,0,-0.3,0.69,0)"
         d="M 8.7185878,4.0337352 -2.2072895,0.01601326 8.7185884,-4.0017078 c -1.7454984,2.3720609 -1.7354408,5.6174519 -6e-7,8.035443 z"
         style="fill:#808080;fill-opacity:1;fill-rule:evenodd;stroke:#808080;stroke-width:0.625;stroke-linejoin:round;stroke-opacity:1"
         id="path1052-4-9-99-4" />
    </marker>
    <marker
       style="overflow:visible"
       id="Arrow2Send-0-21-7"
       refX="0"
       refY="0"
       orient="auto"
       inkscape:stockid="Arrow2Send"
       inkscape:isstock="true">
      <path
         transform="matrix(-0.3,0,0,-0.3,0.69,0)"
         d="M 8.7185878,4.0337352 -2.2072895,0.01601326 8.7185884,-4.0017078 c -1.7454984,2.3720609 -1.7354408,5.6174519 -6e-7,8.035443 z"
         style="fill:#808080;fill-opacity:1;fill-rule:evenodd;stroke:#808080;stroke-width:0.625;stroke-linejoin:round;stroke-opacity:1"
         id="path1052-4-1-8" />
    </marker>
    <marker
       style="overflow:visible"
       id="Arrow2Send-0-8-4"
       refX="0"
       refY="0"
       orient="auto"
       inkscape:stockid="Arrow2Send"
       inkscape:isstock="true">
      <path
         transform="matrix(-0.3,0,0,-0.3,0.69,0)"
         d="M 8.7185878,4.0337352 -2.2072895,0.01601326 8.7185884,-4.0017078 c -1.7454984,2.3720609 -1.7354408,5.6174519 -6e-7,8.035443 z"
         style="fill:#000000;fill-opacity:1;fill-rule:evenodd;stroke:#000000;stroke-width:0.625;stroke-linejoin:round;stroke-opacity:1"
         id="path1052-4-91-15" />
    </marker>
    <marker
       style="overflow:visible"
       id="Arrow2Send-0-8-7"
       refX="0"
       refY="0"
       orient="auto"
       inkscape:stockid="Arrow2Send"
       inkscape:isstock="true">
      <path
         transform="matrix(-0.3,0,0,-0.3,0.69,0)"
         d="M 8.7185878,4.0337352 -2.2072895,0.01601326 8.7185884,-4.0017078 c -1.7454984,2.3720609 -1.7354408,5.6174519 -6e-7,8.035443 z"
         style="fill:#b3b3b3;fill-opacity:1;fill-rule:evenodd;stroke:#b3b3b3;stroke-width:0.625;stroke-linejoin:round;stroke-opacity:1"
         id="path1052-4-91-6" />
    </marker>
    <marker
       style="overflow:visible"
       id="Arrow2Send-0-8-7-2"
       refX="0"
       refY="0"
       orient="auto"
       inkscape:stockid="Arrow2Send"
       inkscape:isstock="true">
      <path
         transform="matrix(-0.3,0,0,-0.3,0.69,0)"
         d="M 8.7185878,4.0337352 -2.2072895,0.01601326 8.7185884,-4.0017078 c -1.7454984,2.3720609 -1.7354408,5.6174519 -6e-7,8.035443 z"
         style="fill:#b3b3b3;fill-opacity:1;fill-rule:evenodd;stroke:#b3b3b3;stroke-width:0.625;stroke-linejoin:round;stroke-opacity:1"
         id="path1052-4-91-6-4" />
    </marker>
    <marker
       style="overflow:visible"
       id="Arrow2Send-0-8-7-7"
       refX="0"
       refY="0"
       orient="auto"
       inkscape:stockid="Arrow2Send"
       inkscape:isstock="true">
      <path
         transform="matrix(-0.3,0,0,-0.3,0.69,0)"
         d="M 8.7185878,4.0337352 -2.2072895,0.01601326 8.7185884,-4.0017078 c -1.7454984,2.3720609 -1.7354408,5.6174519 -6e-7,8.035443 z"
         style="fill:#b3b3b3;fill-opacity:1;fill-rule:evenodd;stroke:#b3b3b3;stroke-width:0.625;stroke-linejoin:round;stroke-opacity:1"
         id="path1052-4-91-6-7" />
    </marker>
    <marker
       style="overflow:visible"
       id="Arrow2Send-0-8-7-2-0"
       refX="0"
       refY="0"
       orient="auto"
       inkscape:stockid="Arrow2Send"
       inkscape:isstock="true">
      <path
         transform="matrix(-0.3,0,0,-0.3,0.69,0)"
         d="M 8.7185878,4.0337352 -2.2072895,0.01601326 8.7185884,-4.0017078 c -1.7454984,2.3720609 -1.7354408,5.6174519 -6e-7,8.035443 z"
         style="fill:#b3b3b3;fill-opacity:1;fill-rule:evenodd;stroke:#b3b3b3;stroke-width:0.625;stroke-linejoin:round;stroke-opacity:1"
         id="path1052-4-91-6-4-3" />
    </marker>
    <marker
       style="overflow:visible"
       id="Arrow2Send-0-8-8"
       refX="0"
       refY="0"
       orient="auto"
       inkscape:stockid="Arrow2Send"
       inkscape:isstock="true">
      <path
         transform="matrix(-0.3,0,0,-0.3,0.69,0)"
         d="M 8.7185878,4.0337352 -2.2072895,0.01601326 8.7185884,-4.0017078 c -1.7454984,2.3720609 -1.7354408,5.6174519 -6e-7,8.035443 z"
         style="fill:#b3b3b3;fill-opacity:1;fill-rule:evenodd;stroke:#b3b3b3;stroke-width:0.625;stroke-linejoin:round;stroke-opacity:1"
         id="path1052-4-91-7" />
    </marker>
  </defs>
  <sodipodi:namedview
     id="base"
     pagecolor="#ffffff"
     bordercolor="#666666"
     borderopacity="1.0"
     inkscape:pageopacity="0.0"
     inkscape:pageshadow="2"
     inkscape:zoom="0.175"
     inkscape:cx="2469.6692"
     inkscape:cy="1916.9857"
     inkscape:document-units="mm"
     inkscape:current-layer="layer1"
     inkscape:document-rotation="0"
     showgrid="false"
     inkscape:snap-object-midpoints="true"
     inkscape:snap-center="true"
     fit-margin-top="0"
     fit-margin-left="0"
     fit-margin-right="0"
     fit-margin-bottom="0"
     inkscape:window-width="1920"
     inkscape:window-height="1027"
     inkscape:window-x="-8"
     inkscape:window-y="-8"
     inkscape:window-maximized="1" />
  <metadata
     id="metadata5">
    <rdf:RDF>
      <cc:Work
         rdf:about="">
        <dc:format>image/svg+xml</dc:format>
        <dc:type
           rdf:resource="http://purl.org/dc/dcmitype/StillImage" />
        <dc:title></dc:title>
      </cc:Work>
    </rdf:RDF>
  </metadata>
  <g
     inkscape:label="Layer 1"
     inkscape:groupmode="layer"
     id="layer1"
     transform="translate(998.91406,480.61426)">
    <rect
       style="fill:#ffffff;stroke:#000000;stroke-width:4.99999;stroke-miterlimit:4;stroke-dasharray:none;stroke-dashoffset:0"
       id="rect5346-6-75"
       width="217.33002"
       height="61.34824"
       x="-996.41406"
       y="-472.86014" />
    <text
       xml:space="preserve"
       style="font-style:normal;font-weight:normal;font-size:50.8px;line-height:1.25;font-family:sans-serif;fill:#000000;fill-opacity:1;stroke:none;stroke-width:0.264583"
       x="-947.41675"
       y="-423.2724"
       id="text146-7-80"><tspan
         sodipodi:role="line"
         id="tspan144-4-3"
         x="-947.41675"
         y="-423.2724"
         style="font-size:50.8px;stroke-width:0.264583">code</tspan></text>
    <path
       style="fill:#000000;stroke:#000000;stroke-width:11.2489;stroke-linecap:butt;stroke-linejoin:miter;stroke-miterlimit:4;stroke-dasharray:none;stroke-opacity:1"
       d="M -875.70843,-261.25726 V 528.2114"
       id="a7-7"
       sodipodi:nodetypes="cc" />
    <path
       fill="currentColor"
       d="m -934.9751,-374.51236 v 118.53332 h 118.53334 v -118.53332 z m 64.50542,92.44541 c 0,11.53583 -6.77333,16.80104 -16.64229,16.80104 -8.91646,0 -14.07583,-4.60375 -16.72167,-10.18645 l 9.07521,-5.47687 c 1.74625,3.09562 3.33375,5.71499 7.17021,5.71499 3.65125,0 5.97958,-1.42874 5.97958,-7.01146 v -37.86187 h 11.13896 z m 26.3525,16.80104 c -10.34521,0 -17.03917,-4.92125 -20.29354,-11.37707 l 9.07521,-5.23876 c 2.38125,3.88938 5.50333,6.77333 10.98021,6.77333 4.60375,0 7.56708,-2.30187 7.56708,-5.50333 0,-3.81 -3.01625,-5.15937 -8.12271,-7.40833 l -2.77811,-1.19063 c -8.04335,-3.41312 -13.36146,-7.72583 -13.36146,-16.80104 0,-8.36083 6.37646,-14.71083 16.29833,-14.71083 7.09083,0 12.17084,2.46062 15.82209,8.91646 l -8.67833,5.55625 c -1.905,-3.41313 -3.96876,-4.7625 -7.17022,-4.7625 -3.25437,0 -5.31812,2.06375 -5.31812,4.7625 0,3.33375 2.06375,4.68312 6.85271,6.77333 l 2.77813,1.19063 c 9.47208,4.04812 14.7902,8.20208 14.7902,17.51541 0,10.00124 -7.88458,15.50457 -18.44147,15.50458 z"
       id="path111"
       style="stroke-width:0.264583" />
    <g
       id="e4">
      <g
         id="g464"
         transform="translate(1122.532,-797.53227)">
        <g
           id="g5406"
           transform="translate(-2152.2049,-65.931268)">
          <rect
             style="fill:#ffffff;stroke:#000000;stroke-width:5;stroke-miterlimit:4;stroke-dasharray:none;stroke-dashoffset:0"
             id="rect5346-6-7"
             width="217.33002"
             height="61.34824"
             x="931.28442"
             y="385.71191" />
          <text
             xml:space="preserve"
             style="font-style:normal;font-weight:normal;font-size:50.8px;line-height:1.25;font-family:sans-serif;fill:#000000;fill-opacity:1;stroke:none;stroke-width:0.264583"
             x="933.82257"
             y="435.29962"
             id="text146-7-8"><tspan
               sodipodi:role="line"
               id="tspan144-4-9"
               x="933.82257"
               y="435.29962"
               style="font-size:50.8px;stroke-width:0.264583">backend</tspan></text>
        </g>
      </g>
      <g
         id="g4058"
         transform="translate(-47.791187,-730.06797)">
        <path
           fill="currentColor"
           d="M 111.9363,389.42227 H -6.597025 c -4.67598,0 -8.466674,-3.79069 -8.466674,-8.46667 v -16.93333 c 0,-4.67598 3.790694,-8.46667 8.466674,-8.46667 H 111.9363 c 4.67598,0 8.46667,3.79069 8.46667,8.46667 v 16.93333 c 0,4.67598 -3.79069,8.46667 -8.46667,8.46667 z M 99.236295,366.13894 c -3.50705,0 -6.35,2.84294 -6.35,6.34999 0,3.50706 2.84295,6.35 6.35,6.35 3.507055,0 6.350005,-2.84294 6.350005,-6.35 0,-3.50705 -2.84295,-6.34999 -6.350005,-6.34999 z m -16.93333,0 c -3.50705,0 -6.35,2.84294 -6.35,6.34999 0,3.50706 2.84295,6.35 6.35,6.35 3.50705,0 6.35,-2.84294 6.35,-6.35 0,-3.50705 -2.84295,-6.34999 -6.35,-6.34999 z M 111.9363,431.7556 H -6.597025 c -4.67598,0 -8.466674,-3.79068 -8.466674,-8.46667 V 406.3556 c 0,-4.67598 3.790694,-8.46667 8.466674,-8.46667 H 111.9363 c 4.67598,0 8.46667,3.79069 8.46667,8.46667 v 16.93333 c 0,4.67599 -3.79069,8.46667 -8.46667,8.46667 z M 99.236295,408.47227 c -3.50705,0 -6.35,2.84295 -6.35,6.35 0,3.50705 2.84295,6.35 6.35,6.35 3.507055,0 6.350005,-2.84295 6.350005,-6.35 0,-3.50705 -2.84295,-6.35 -6.350005,-6.35 z m -16.93333,0 c -3.50705,0 -6.35,2.84295 -6.35,6.35 0,3.50705 2.84295,6.35 6.35,6.35 3.50705,0 6.35,-2.84295 6.35,-6.35 0,-3.50705 -2.84295,-6.35 -6.35,-6.35 z M 111.9363,474.08894 H -6.597025 c -4.67598,0 -8.466674,-3.79069 -8.466674,-8.46667 v -16.93334 c 0,-4.67598 3.790694,-8.46666 8.466674,-8.46666 H 111.9363 c 4.67598,0 8.46667,3.79068 8.46667,8.46666 v 16.93334 c 0,4.67598 -3.79069,8.46667 -8.46667,8.46667 z M 99.236295,450.8056 c -3.50705,0 -6.35,2.84294 -6.35,6.35 0,3.50705 2.84295,6.35 6.35,6.35 3.507055,0 6.350005,-2.84295 6.350005,-6.35 0,-3.50706 -2.84295,-6.35 -6.350005,-6.35 z m -16.93333,0 c -3.50705,0 -6.35,2.84294 -6.35,6.35 0,3.50705 2.84295,6.35 6.35,6.35 3.50705,0 6.35,-2.84295 6.35,-6.35 0,-3.50706 -2.84295,-6.35 -6.35,-6.35 z"
           id="path122-6"
           style="stroke-width:0.264583" />
        <path
           fill="currentColor"
           d="m 56.591105,412.0203 v 5.17483 c 0,4.56039 -11.35772,8.2798 -25.35685,8.2798 -13.99913,0 -25.35685,-3.71941 -25.35685,-8.2798 v -5.17483 c 0,-4.56039 11.35772,-8.27981 25.35685,-8.27981 13.99913,0 25.35685,3.71942 25.35685,8.27981 z m 0,11.64343 v 11.64344 c 0,4.56038 -11.35772,8.2798 -25.35685,8.2798 -13.99913,0 -25.35685,-3.71942 -25.35685,-8.2798 v -11.64344 c 5.44776,3.7518 15.41877,5.49836 25.35685,5.49836 9.93807,0 19.90898,-1.74656 25.35685,-5.49836 z m 0,18.11203 v 11.64344 c 0,4.56038 -11.35772,8.2798 -25.35685,8.2798 -13.99913,0 -25.35685,-3.71942 -25.35685,-8.2798 v -11.64344 c 5.44776,3.7518 15.41877,5.49836 25.35685,5.49836 9.93807,0 19.90898,-1.74656 25.35685,-5.49836 z"
           id="path133"
           style="fill:#ffffff;stroke-width:0.1132" />
      </g>
      <path
         style="fill:#000000;stroke:#000000;stroke-width:11.2489;stroke-linecap:butt;stroke-linejoin:miter;stroke-miterlimit:4;stroke-dasharray:none;stroke-opacity:1"
         d="M 4.8784485,-261.25726 V 528.2114"
         id="a7-7-89"
         sodipodi:nodetypes="cc" />
    </g>
    <g
       id="e1">
      <path
         style="fill:#b3b3b3;stroke:#b3b3b3;stroke-width:24.1387;stroke-linecap:butt;stroke-linejoin:miter;stroke-miterlimit:4;stroke-dasharray:none;stroke-opacity:1;marker-end:url(#Arrow2Send-0-8)"
         d="m -874.02696,-209.91876 h 394.66255"
         id="a7"
         sodipodi:nodetypes="cc" />
      <text
         xml:space="preserve"
         style="font-style:normal;font-weight:normal;font-size:50.8px;line-height:1.25;font-family:sans-serif;fill:#000000;fill-opacity:1;stroke:none;stroke-width:0.264583"
         x="-772.00647"
         y="-195.72243"
         id="text146-7-80-4"><tspan
           sodipodi:role="line"
           id="tspan144-4-3-7"
           x="-772.00647"
           y="-195.72243"
           style="font-size:50.8px;stroke-width:0.264583">fetch(...)</tspan></text>
    </g>
    <g
       id="e3">
      <path
         style="fill:#b3b3b3;stroke:#b3b3b3;stroke-width:24.1387;stroke-linecap:butt;stroke-linejoin:miter;stroke-miterlimit:4;stroke-dasharray:none;stroke-opacity:1;marker-end:url(#Arrow2Send-0-8-7)"
         d="M -433.338,-162.57496 H -38.675461"
         id="a7-5"
         sodipodi:nodetypes="cc" />
      <text
         xml:space="preserve"
         style="font-style:normal;font-weight:normal;font-size:50.8px;line-height:1.25;font-family:sans-serif;fill:#000000;fill-opacity:1;stroke:none;stroke-width:0.264583"
         x="-336.52652"
         y="-144.22383"
         id="text146-7-80-4-8"><tspan
           sodipodi:role="line"
           id="tspan144-4-3-7-9"
           x="-336.52652"
           y="-144.22383"
           style="font-size:50.8px;stroke-width:0.264583">OPTIONS</tspan></text>
      <text
         xml:space="preserve"
         style="font-style:normal;font-weight:normal;font-size:25.4px;line-height:1.25;font-family:sans-serif;fill:#000000;fill-opacity:1;stroke:none;stroke-width:0.264583"
         x="-421.86395"
         y="-110.04482"
         id="text146-7-80-4-8-9"><tspan
           sodipodi:role="line"
           id="tspan144-4-3-7-9-9"
           x="-421.86395"
           y="-110.04482"
           style="font-size:25.4px;stroke-width:0.264583">Origin</tspan><tspan
           sodipodi:role="line"
           x="-421.86395"
           y="-78.294823"
           style="font-size:25.4px;stroke-width:0.264583"
           id="tspan1898">Access-Control-Request-Method</tspan><tspan
           sodipodi:role="line"
           x="-421.86395"
           y="-46.544823"
           style="font-size:25.4px;stroke-width:0.264583"
           id="tspan1900">Access-Control-Request-Headers</tspan></text>
    </g>
    <g
       id="e5">
      <path
         style="fill:#b3b3b3;stroke:#b3b3b3;stroke-width:24.1387;stroke-linecap:butt;stroke-linejoin:miter;stroke-miterlimit:4;stroke-dasharray:none;stroke-opacity:1;marker-end:url(#Arrow2Send-0-8-7-2)"
         d="M 3.1159127,35.739533 H -391.54664"
         id="a7-5-3"
         sodipodi:nodetypes="cc" />
      <text
         xml:space="preserve"
         style="font-style:normal;font-weight:normal;font-size:50.8px;line-height:1.25;font-family:sans-serif;fill:#000000;fill-opacity:1;stroke:none;stroke-width:0.264583"
         x="-308.35535"
         y="54.32259"
         id="text146-7-80-4-8-0"><tspan
           sodipodi:role="line"
           id="tspan144-4-3-7-9-3"
           x="-308.35535"
           y="54.32259"
           style="font-size:50.8px;stroke-width:0.264583">200 OK</tspan></text>
      <text
         xml:space="preserve"
         style="font-style:normal;font-weight:normal;font-size:25.4px;line-height:1.25;font-family:sans-serif;fill:#000000;fill-opacity:1;stroke:none;stroke-width:0.264583"
         x="-422.2883"
         y="97.58519"
         id="text146-7-80-4-8-9-0"><tspan
           sodipodi:role="line"
           x="-422.2883"
           y="97.58519"
           style="font-size:25.4px;stroke-width:0.264583"
           id="tspan1900-7">Access-Control-Allow-Origin</tspan><tspan
           sodipodi:role="line"
           x="-422.2883"
           y="129.33519"
           style="font-size:25.4px;stroke-width:0.264583"
           id="tspan2323">Access-Control-Allow-Methods</tspan><tspan
           sodipodi:role="line"
           x="-422.2883"
           y="161.08519"
           style="font-size:25.4px;stroke-width:0.264583"
           id="tspan2325">Access-Control-Allow-Headers</tspan><tspan
           sodipodi:role="line"
           x="-422.2883"
           y="192.83519"
           style="font-size:25.4px;stroke-width:0.264583"
           id="tspan2327">Access-Control-Max-Age</tspan></text>
    </g>
    <g
       id="e6">
      <path
         style="fill:#b3b3b3;stroke:#b3b3b3;stroke-width:24.1387;stroke-linecap:butt;stroke-linejoin:miter;stroke-miterlimit:4;stroke-dasharray:none;stroke-opacity:1;marker-end:url(#Arrow2Send-0-8-7-7)"
         d="M -429.47306,264.6993 H -34.810505"
         id="a7-5-5"
         sodipodi:nodetypes="cc" />
      <text
         xml:space="preserve"
         style="font-style:normal;font-weight:normal;font-size:50.8px;line-height:1.25;font-family:sans-serif;fill:#000000;fill-opacity:1;stroke:none;stroke-width:0.264583"
         x="-351.63715"
         y="278.77161"
         id="text146-7-80-4-8-4"><tspan
           sodipodi:role="line"
           id="tspan144-4-3-7-9-0"
           x="-351.63715"
           y="278.77161"
           style="font-size:50.8px;stroke-width:0.264583">de request</tspan></text>
    </g>
    <g
       id="e2">
      <g
         id="g452">
        <rect
           style="fill:#ffffff;stroke:#000000;stroke-width:5;stroke-miterlimit:4;stroke-dasharray:none;stroke-dashoffset:0"
           id="rect5346-6"
           width="217.33002"
           height="61.34824"
           x="-540.98676"
           y="-478.11426" />
        <text
           xml:space="preserve"
           style="font-style:normal;font-weight:normal;font-size:50.8px;line-height:1.25;font-family:sans-serif;fill:#000000;fill-opacity:1;stroke:none;stroke-width:0.264583"
           x="-536.78668"
           y="-428.52655"
           id="text146-7"><tspan
             sodipodi:role="line"
             id="tspan144-4"
             x="-536.78668"
             y="-428.52655"
             style="font-size:50.8px;stroke-width:0.264583">browser</tspan></text>
      </g>
      <g
         id="g447"
         transform="translate(98.355193,-305.39178)">
        <path
           fill="currentColor"
           d="m -478.73684,-69.120598 h -110.06667 c -7.01146,0 -12.7,5.68854 -12.7,12.70001 v 93.133343 c 0,7.01145 5.68854,12.69999 12.7,12.69999 h 110.06667 c 7.01145,0 12.7,-5.68854 12.7,-12.69999 v -93.133343 c 0,-7.01147 -5.68855,-12.70001 -12.7,-12.70001 z m 0,104.245853 c 0,0.87312 -0.71438,1.5875 -1.5875,1.5875 h -106.89167 c -0.87313,0 -1.5875,-0.71438 -1.5875,-1.5875 v -61.912503 h 110.06667 z"
           id="path89"
           style="stroke-width:0.264583" />
        <text
           xml:space="preserve"
           style="font-style:normal;font-weight:normal;font-size:40.7724px;line-height:1.25;font-family:sans-serif;fill:#ffffff;fill-opacity:1;stroke:none;stroke-width:0.212356"
           x="-596.14392"
           y="-31.605892"
           id="text146-7-80-2"><tspan
             sodipodi:role="line"
             id="tspan144-4-3-5"
             x="-596.14392"
             y="-31.605892"
             style="font-size:40.7724px;fill:#ffffff;stroke-width:0.212356">hhs.nl</tspan></text>
      </g>
      <path
         style="fill:#000000;stroke:#000000;stroke-width:11.2489;stroke-linecap:butt;stroke-linejoin:miter;stroke-miterlimit:4;stroke-dasharray:none;stroke-opacity:1"
         d="M -434.04572,-261.25726 V 528.2114"
         id="a7-7-8"
         sodipodi:nodetypes="cc" />
      <text
         xml:space="preserve"
         style="font-style:normal;font-weight:normal;font-size:25.4px;line-height:1.25;font-family:sans-serif;fill:#000000;fill-opacity:1;stroke:none;stroke-width:0.264583"
         x="-420.7764"
         y="306.22806"
         id="text146-7-80-4-8-9-7"><tspan
           sodipodi:role="line"
           x="-420.7764"
           y="306.22806"
           style="font-size:25.4px;stroke-width:0.264583"
           id="tspan1900-2">Origin</tspan></text>
    </g>
    <g
       id="e7">
      <path
         style="fill:#b3b3b3;stroke:#b3b3b3;stroke-width:24.1387;stroke-linecap:butt;stroke-linejoin:miter;stroke-miterlimit:4;stroke-dasharray:none;stroke-opacity:1;marker-end:url(#Arrow2Send-0-8-7-2-0)"
         d="M 4.6278229,382.39593 H -390.03474"
         id="a7-5-3-9"
         sodipodi:nodetypes="cc" />
      <text
         xml:space="preserve"
         style="font-style:normal;font-weight:normal;font-size:50.8px;line-height:1.25;font-family:sans-serif;fill:#000000;fill-opacity:1;stroke:none;stroke-width:0.264583"
         x="-365.02283"
         y="396.70016"
         id="text146-7-80-4-8-4-8"><tspan
           sodipodi:role="line"
           id="tspan144-4-3-7-9-0-7"
           x="-365.02283"
           y="396.70016"
           style="font-size:50.8px;stroke-width:0.264583">de response</tspan></text>
      <text
         xml:space="preserve"
         style="font-style:normal;font-weight:normal;font-size:25.4px;line-height:1.25;font-family:sans-serif;fill:#000000;fill-opacity:1;stroke:none;stroke-width:0.264583"
         x="-425.58435"
         y="434.13904"
         id="text146-7-80-4-8-9-0-3"><tspan
           sodipodi:role="line"
           x="-425.58435"
           y="434.13904"
           style="font-size:25.4px;stroke-width:0.264583"
           id="tspan2327-6">Access-Control-Allow-Origin</tspan></text>
    </g>
    <g
       id="e8">
      <path
         style="fill:#b3b3b3;stroke:#b3b3b3;stroke-width:24.1387;stroke-linecap:butt;stroke-linejoin:miter;stroke-miterlimit:4;stroke-dasharray:none;stroke-opacity:1;marker-end:url(#Arrow2Send-0-8-8)"
         d="M -435.33646,458.22311 H -829.99901"
         id="a7-2"
         sodipodi:nodetypes="cc" />
      <text
         xml:space="preserve"
         style="font-style:normal;font-weight:normal;font-size:50.8px;line-height:1.25;font-family:sans-serif;fill:#000000;fill-opacity:1;stroke:none;stroke-width:0.264583"
         x="-859.85504"
         y="472.52734"
         id="text146-7-80-4-8-4-8-5"><tspan
           sodipodi:role="line"
           id="tspan144-4-3-7-9-0-7-7"
           x="-859.85504"
           y="472.52734"
           style="font-size:50.8px;stroke-width:0.264583">response / error</tspan></text>
      <text
         xml:space="preserve"
         style="font-style:normal;font-weight:normal;font-size:25.4px;line-height:1.25;font-family:sans-serif;fill:#000000;fill-opacity:1;stroke:none;stroke-width:0.264583"
         x="-858.37689"
         y="509.14978"
         id="text146-7-80-4-8-9-0-3-5"><tspan
           sodipodi:role="line"
           x="-858.37689"
           y="509.14978"
           style="font-size:25.4px;stroke-width:0.264583"
           id="tspan2327-6-0">(response als toegestaan, </tspan><tspan
           sodipodi:role="line"
           x="-858.37689"
           y="540.89978"
           style="font-size:25.4px;stroke-width:0.264583"
           id="tspan3841"> anders error)</tspan></text>
    </g>
  </g>
</svg>
